# xmcd CD database file
#
# Track frame offsets:
#	150
#	18474
#	31587
#	47069
#	58757
#	76042
#	89242
#	108440
#	122469
#	141075
#	153421
#	167611
#	181525
#	200379
#	214066
#	228716
#	238893
#	253801
#	268278
#
# Disc length: 3774 seconds
#
# Revision: 1
# Processed by: cddbd v1.5.2PL0 Copyright (c) Steve Scherf et al.
# Submitted via: CDex 1.51
#
DISCID=050ebc13
DTITLE=Peter Samek - Will I Ever Get Back Home
DYEAR=1998
DGENRE=Blues
TTITLE0=Keep This Trouble Down
TTITLE1=Backstreets
TTITLE2=You Keep Me Standing On My Feet
TTITLE3=Stagger Lee
TTITLE4=Willow Tree
TTITLE5=Summer Is Over
TTITLE6=Special Rider
TTITLE7=Canary Bird
TTITLE8=Blues Followed Me
TTITLE9=Still The Same
TTITLE10=You're The One
TTITLE11=That's All Right
TTITLE12=Women I've Known
TTITLE13=Held Up In Town
TTITLE14=Little And Low
TTITLE15=Why Don't You Go Back Home
TTITLE16=Feel Like Going Home
TTITLE17=Broke And Hungry
TTITLE18=Can't Let That Woman Go
EXTD=YEAR: 1998
EXTT0=
EXTT1=
EXTT2=
EXTT3=
EXTT4=
EXTT5=
EXTT6=
EXTT7=
EXTT8=
EXTT9=
EXTT10=
EXTT11=
EXTT12=
EXTT13=
EXTT14=
EXTT15=
EXTT16=
EXTT17=
EXTT18=
PLAYORDER=
